<?xml version="1.0" standalone="no"?>
<!DOCTYPE svg PUBLIC "-//W3C//DTD SVG 20010904//EN"
 "http://www.w3.org/TR/2001/REC-SVG-20010904/DTD/svg10.dtd">
<svg version="1.0" xmlns="http://www.w3.org/2000/svg"
 width="16.000000pt" height="16.000000pt" viewBox="0 0 16.000000 16.000000"
 preserveAspectRatio="xMidYMid meet">
<metadata>
Created by potrace 1.11, written by Peter Selinger 2001-2013
</metadata>
<g transform="translate(0.000000,16.000000) scale(0.004167,-0.004167)"
fill="#000000" stroke="none">
<path d="M0 1920 l0 -1920 1920 0 1920 0 0 1920 0 1920 -1920 0 -1920 0 0
-1920z m2212 1410 c565 -119 997 -553 1120 -1123 31 -147 31 -427 0 -574 -95
-440 -373 -802 -768 -1001 -105 -53 -233 -97 -357 -124 -147 -31 -427 -31
-574 0 -439 95 -803 374 -1001 768 -53 105 -97 233 -124 357 -31 147 -31 427
0 574 62 289 188 520 397 728 234 234 505 369 835 415 104 14 361 4 472 -20z"/>
<path d="M1880 3329 c-24 -10 -24 -11 -6 -24 46 -34 268 -47 297 -18 34 34
-224 71 -291 42z"/>
<path d="M1560 3036 c-133 -35 -210 -144 -160 -224 87 -140 410 -53 410 111 0
31 -7 46 -33 72 -52 52 -126 66 -217 41z"/>
<path d="M934 2922 c-88 -65 -184 -196 -184 -252 0 -66 138 36 222 164 65 101
45 148 -38 88z"/>
<path d="M2438 2740 c-120 -64 -143 -237 -46 -354 117 -142 333 -71 346 114
13 179 -158 315 -300 240z"/>
<path d="M3154 2545 c-25 -64 66 -345 112 -345 32 0 2 171 -51 282 -32 68 -52
88 -61 63z"/>
<path d="M1203 2193 c-76 -26 -143 -125 -143 -208 0 -115 108 -225 220 -225
112 0 220 110 220 225 0 86 -67 182 -147 209 -56 19 -94 19 -150 -1z"/>
<path d="M2855 1711 c-45 -28 -71 -60 -101 -126 -37 -80 -40 -182 -6 -237 85
-137 275 -4 290 204 4 54 1 75 -17 111 -32 67 -103 87 -166 48z"/>
<path d="M725 1450 c-19 -30 -22 -73 -11 -122 34 -144 145 -270 212 -240 48
22 41 120 -16 231 -33 62 -51 85 -94 119 -30 23 -80 30 -91 12z"/>
<path d="M1746 1183 c-178 -60 -176 -268 4 -326 66 -21 104 -21 170 0 182 59
182 267 0 326 -64 21 -110 21 -174 0z"/>
<path d="M2593 755 c-59 -30 -131 -90 -121 -100 12 -12 89 22 142 62 82 63 71
83 -21 38z"/>
</g>
</svg>
